<svg xmlns="http://www.w3.org/2000/svg" viewBox="0 0 180.45 124.12"><defs><style>.cls-1{fill:#cd9f00;}.cls-2{fill:none;}</style></defs><title>Asset 8</title><g id="Layer_2" data-name="Layer 2"><g id="Layer_1-2" data-name="Layer 1"><path class="cls-1" d="M129.86,68.62a77.87,77.87,0,0,0,5-6.14c5.16-7.79,7.72-16.22,4.91-25.49C137.39,29.12,132,23.85,124,22.19c-8.35-1.72-16.24.31-23.37,4.95C91.52,33,85.07,41.23,80.35,50.87c-1,2-.55,2.53,1.73,2.77,3.85.4,6.31-2,8.37-4.5,3.39-4.19,6.39-8.69,9.55-13a6.62,6.62,0,0,1,.92-1.11,2.76,2.76,0,0,1,3.68,0,2.32,2.32,0,0,1,.4,3.32c-4.45,6.08-9.18,11.9-16.21,15.21a20.33,20.33,0,0,1-9.3,2,1.53,1.53,0,0,1-.48,0c-1.44-.51-2.86-1-4.29-1.58a23.07,23.07,0,0,1,1.17-3.49A61.14,61.14,0,0,1,101,24.8a41.21,41.21,0,0,1,22.21-5.6c10.6.52,20.51,7.52,23.32,18.52,1.32,5.21,0,10.3-1.84,15.18-2.35,6.08-5.79,11.43-11.19,15.31-2,1.43-2.1,1.42-3.6.41"/><path class="cls-1" d="M33.41,46.14C33.82,33,42.66,22.35,54.12,19.72,63.81,17.49,73,19,81.24,24.91A24.82,24.82,0,0,1,85,28.44c1.65,1.84,1.33,4-.7,6C82.54,36,81,36,79.07,34.29c-4.79-4.2-9.88-7.93-16.4-8.81-10.85-1.48-23,3.86-25.73,16.64-1.23,5.83.4,11.24,3,16.37,3.47,6.9,9,11.85,15.42,16A9.08,9.08,0,0,1,57,76.37,7,7,0,0,1,54.4,76C46,70.65,38.65,64.24,35.17,54.53c-1-2.66-1.19-5.58-1.76-8.39"/><path class="cls-1" d="M65.59,84.71c1.9-4.28,5.08-7.49,8.69-10.32,2.83-2.22,5.78-4.3,9.44-4.79A14.51,14.51,0,0,1,88.4,70c.57.12,1,1,1.47,1.65-8.54.05-13.48,5.36-18.14,11.06a9.55,9.55,0,0,0-1.43,2.83c-1.21,3.42,0,5.79,3.54,7.11a22,22,0,0,1,6-8.46C83.3,81.06,86.81,78,91.46,77a15.87,15.87,0,0,1,4.72-.16,2.15,2.15,0,0,1,2,2.36C91.81,78.05,88,82.29,83.79,85.77a16.31,16.31,0,0,0-5,7c-1.18,3.26-.07,5.62,3.12,7,.32.14.63.32,1,.51-3.34,1.91-10.17-1.08-9.39-6.06a41.35,41.35,0,0,1-6.2-2.3c-2.17-1.2-2.44-3.48-2.12-5.66A26.26,26.26,0,0,1,60.71,85c-3.31-1.56-4.28-4.06-3.08-7.52s3.71-6.24,6.42-8.68c3.43-3.09,7.06-5.92,11.74-6.86a11.24,11.24,0,0,1,3.66-.15,2.48,2.48,0,0,1,2.39,2.11c-8.69.1-13.77,5.69-18.41,11.87A10.12,10.12,0,0,0,62,79.57c-.47,2.11,1.12,4.22,3.61,5.14"/><path class="cls-1" d="M124.29,78.57a5.83,5.83,0,0,1,.36-1.29c2.5-4.27,1.31-8.23-1.05-12-3.28-5.31-7.79-9.51-12.58-13.4-1.91-1.55-3.9-3-5.88-4.45s-2.38-2.81-1.32-4.28a3.67,3.67,0,0,1,5.11-.87,21.91,21.91,0,0,1,2.45,2.08c6.44,6.13,12,12.92,15.7,21.08,1.76,3.87,2.36,7.77-.06,11.59a12.35,12.35,0,0,1-2.15,2l-.58-.48"/><path class="cls-1" d="M107.63,84.35c-1.91.22-3.74,0-5.18.66-6,2.69-10.92,6.71-14,12.62a8.58,8.58,0,0,0-.7,4.27,2.58,2.58,0,0,0,3.31,2.1c3.36-.78,5.86-3,8.31-5.2.58-.54,1.23-1,1.85-1.52l.54.58a50.11,50.11,0,0,1-4,4.1c-3,2.42-6.36,3.83-10.33,3.33-3.59-.45-5.09-3.74-4-6.79a22.37,22.37,0,0,1,3.61-6.31A32.63,32.63,0,0,1,97.9,83.57a13.28,13.28,0,0,1,7.47-1.27,2.21,2.21,0,0,1,2.26,2"/><path class="cls-1" d="M117.44,86.52A4.82,4.82,0,0,1,118,85c2.23-2.51,2.31-5.27,1-8.18-2-4.54-5.31-8-9-11.1-4-3.29-8.29-6.19-12.42-9.32a4.53,4.53,0,0,1-1.51-1.94,2.06,2.06,0,0,1,.46-1.82,2,2,0,0,1,1.82-.32,26.75,26.75,0,0,1,3.67,2.51c6.82,5.28,12.92,11.25,17.51,18.63,1.85,3,2.89,6.18,1.91,9.71a4.34,4.34,0,0,1-4,3.36"/><path class="cls-1" d="M110.42,93.27a5.64,5.64,0,0,1,.66-1.45c2.15-2.63,2.19-5.45.86-8.4-2-4.46-5.32-7.92-9-10.94-4-3.28-8.29-6.2-12.46-9.27a6,6,0,0,1-.62-.51c-1-.94-1.24-2.39-.52-3.14,1-1,2.14-.66,3.06,0,1.5,1,2.86,2.25,4.28,3.39a70,70,0,0,1,16,17.6,11.77,11.77,0,0,1,1.68,9.62,4.61,4.61,0,0,1-3.53,3.44l-.44-.32"/><rect class="cls-2" width="180.45" height="124.12"/></g></g></svg>