<svg xmlns="http://www.w3.org/2000/svg" viewBox="0 0 180.45 124.12"><defs><style>.cls-1{fill:#cd9f00;}.cls-2{fill:none;}</style></defs><title>Asset 10</title><g id="Layer_2" data-name="Layer 2"><g id="Layer_1-2" data-name="Layer 1"><path class="cls-1" d="M112.42,31.82C105,24.29,96,21.25,85.74,22.75c-8.34,1.23-14.6,6-19,13.45a39.51,39.51,0,0,0-5.22,21.32,34.36,34.36,0,0,0,2.76,12.92,44.85,44.85,0,0,0,8,12c2.74,3.09,5.62,6,8.22,9.24a5.5,5.5,0,0,1-.64,7.64,24.93,24.93,0,0,1-3,2.25,4.44,4.44,0,0,0-2.29,3.8,7,7,0,0,0,2,0c2-.64,3.94-1.37,5.88-2.15,4.33-1.76,8.63-3.6,13-5.31a17.56,17.56,0,0,1,3.42-.58c-.88,2.43-2.61,3.15-4.08,4-4.44,2.72-9,5.25-13.4,8-1.79,1.11-3.5,2.46-4.1,4.83,1,1.31,2.38.8,3.53.49,4.75-1.3,9.46-2.79,14.22-4.11,1.17-.32,2.45-1,4,0-1.2.8-2.15,1.55-3.2,2.11-2.16,1.15-4.4,2.11-6.54,3.31a27.1,27.1,0,0,0-4.54,3c-1.63,1.39-1.4,2.8.4,3.91a7.59,7.59,0,0,0,9.49-1.25,4.2,4.2,0,0,0,1.21-2.55c0-1.19-1.24-1.3-2.21-1.41-.07,0-.12-.13-.29-.32.52-.27,1-.52,1.48-.79,2.37-1.37,4.8-2.64,7.08-4.16a7.85,7.85,0,0,0,2.48-2.76,1.72,1.72,0,0,0-1.42-2.69,10.82,10.82,0,0,0-3.41.18c-4.31,1.1-8.6,2.35-12.9,3.52-.77.22-1.56.37-2.34.54,0-.15-.11-.31-.17-.47A20.54,20.54,0,0,1,86,109.55c3.16-1.76,6.36-3.43,9.5-5.22s6.71-3.4,9.33-6.31c.73-.82,1.4-1.83.84-2.8a3.57,3.57,0,0,0-2.32-1.7,13.59,13.59,0,0,0-5,.41c-3.73,1.12-7.37,2.53-11.05,3.81-1.36.47-2.15-.18-1.79-1.58a7.51,7.51,0,0,0-1.71-7c-2.62-3.13-5.5-6-8.22-9A41.18,41.18,0,0,1,68.2,69.42C65,62.07,65,54.52,67.18,46.9c1.49-5.25,3.93-9.91,8.19-13.24a23.29,23.29,0,0,1,18.46-4.85A14.19,14.19,0,0,1,104,34.9c2.15,3.22,3.86,6.77,5.7,10.21a4.63,4.63,0,0,0,5.66,2.21c2.21-.74,3.17-2.48,2.84-5-.55-4.33-2.9-7.63-5.73-10.48"/><path class="cls-1" d="M88.76,67.11c-2-1.13-4.09-2.15-6-3.41-1.3-.85-1.37-2.31-.89-3.75.67-2,2.73-2.58,4.09-1.06a12.34,12.34,0,0,1,2,3.42,42.34,42.34,0,0,1,1.26,4.24l-.41.56M101.26,59c1.39-.55,2.29.07,2.46,1.62.23,2.15-1.18,3.32-2.52,4.39a19.42,19.42,0,0,1-3.34,1.73c0-4,.2-6.47,3.4-7.74m2.32,6.89a6.25,6.25,0,0,0,3.31-6.72,5.12,5.12,0,0,0-4.75-4.69c-3.46-.06-6.11,2.31-6.71,6.24-.33,2.1-.37,4.25-.55,6.38-2.26.23-2.25.22-2.74-2-.73-3.28-1.62-6.48-4.09-8.88A6.2,6.2,0,0,0,77.57,60.7c0,2.92,1.48,5,4.62,6.12,2.27.79,4.65,1.22,7.38,1.91a49.19,49.19,0,0,1,.21,5.78c-.4,5.54-1,11.06-1.48,16.59A2.58,2.58,0,0,0,90,93.72c1.31.2,1.63-.72,1.76-1.81a6.5,6.5,0,0,0,.12-.75c.22-3.91.5-7.81.62-11.73.1-3.59,0-7.19,0-10.83l2.53-.17c0,.43.07.78,0,1.13-.43,6.3-.85,12.6-1.32,18.89-.1,1.42.57,2.72,1.71,2.86s1.87-.92,1.86-2.48c0-.3-.08-.6-.07-.9.06-6.58.13-13.16.19-19.37,2.3-1,4.28-1.69,6.1-2.7"/><path class="cls-1" d="M50.07,62.28a2.79,2.79,0,0,0,2.86-1.91c-2.07-2.07-13.16-3.2-15.8-1.56a6,6,0,0,0,1,.79,25.39,25.39,0,0,0,11.94,2.68"/><path class="cls-1" d="M52.68,27a14.08,14.08,0,0,0,3.87,2.72c.53.28,1.37-.08,2.07-.14a5.86,5.86,0,0,0-.55-1.86A37.61,37.61,0,0,0,48.38,19a12.18,12.18,0,0,0-1.68-.72,7.17,7.17,0,0,0,.55,1.81C49,22.4,50.73,24.81,52.68,27"/><path class="cls-1" d="M142.47,75.52c-3.94-2.4-8.07-4.18-12.73-3.84-.67,0-1.28.77-1.92,1.18.51.52.93,1.26,1.53,1.5A36.38,36.38,0,0,0,141.7,76.8a9.36,9.36,0,0,0,1.62-.32,6,6,0,0,0-.85-1"/><path class="cls-1" d="M131.61,52.92c3-.69,6.07-1.48,9.09-2.28a7.12,7.12,0,0,0,1.56-1.08c-.91-.26-1.39-.45-1.89-.53a26,26,0,0,0-10.63.66c-1.47.36-3,.91-3.37,3.06a5.92,5.92,0,0,0,1.69.46,16.8,16.8,0,0,0,3.55-.29"/><path class="cls-1" d="M59.58,81.34c-2.66,1.62-5.3,3.29-7.84,5.11a36.28,36.28,0,0,0-3.63,3.4c.11.19.22.38.32.57a4.34,4.34,0,0,0,1.22-.16C52.46,89,55.3,87.71,58,86.21a11.22,11.22,0,0,0,3-2.89c.38-.47.28-1.37.39-2.07-.62,0-1.38-.2-1.85.09"/><path class="cls-1" d="M133.1,19.51l-.34-.31a24.63,24.63,0,0,0-10.82,5.64,6.7,6.7,0,0,0-1.65,2,5.19,5.19,0,0,0-.05,2,4.28,4.28,0,0,0,1.58-.15,40.71,40.71,0,0,0,10.72-8.11,4.34,4.34,0,0,0,.56-1.07"/><path class="cls-1" d="M89.71,17.06C91.87,14.7,92.24,2.42,90.47,0a16.78,16.78,0,0,0-.82,1.75,28.08,28.08,0,0,0-1.37,12.37c.1,1,.87,1.82,1.43,2.94"/><rect class="cls-2" width="180.45" height="124.12"/></g></g></svg>