<svg xmlns="http://www.w3.org/2000/svg" viewBox="0 0 180.45 124.12"><defs><style>.cls-1{fill:#cd9f00;}.cls-2{fill:none;}</style></defs><title>Asset 6</title><g id="Layer_2" data-name="Layer 2"><g id="Layer_1-2" data-name="Layer 1"><path class="cls-1" d="M56.58,57.6c-3.06-8.07-4-16.5-9.44-23.1-.81-1-1.92-1.72-2.81-2.65s-1.37-1.72-2.2-2.76c8.66-1.63,25.8-.89,37.22,10.62,4-10.76,8-21.39,11.77-31.62,2,5.16,3.9,10.82,6.37,16.24s5.49,10.57,8.36,16a40.49,40.49,0,0,1,17.59-10.18A47.67,47.67,0,0,1,143.92,29c-2.44,2.88-5.06,5.3-6.84,8.23a57.05,57.05,0,0,0-4.31,10c-1.21,3.31-2.1,6.75-3.18,10.24C139,54,150,55,151.87,59.5c-1.28.2-2.54.36-3.77.62-3.67.74-6.31,3-8.48,5.89-3.56,4.75-7,9.63-11.51,13.54A26.51,26.51,0,0,1,111.94,86c-5.91.35-11.28-1-15.6-5.23-1.26.6-2.43,1.14-3.57,1.73s-2.37.89-3.55-.22a1.69,1.69,0,0,0-1.54.15c-8.44,6.09-22,4-29.58-2.68-4.48-4-8-8.72-11.56-13.51a15.56,15.56,0,0,0-7.47-5.86,2.45,2.45,0,0,1-1-.46c-.69-.76-1.31-1.58-2-2.37a12.77,12.77,0,0,1,2.51-1.25c4.91-1.17,9.84-1.83,14.76,0C54.31,56.6,55.2,57,56.58,57.6ZM90.86,20.48c-1.13,2.73-2.4,6-3.85,9.25-3,6.62-6.14,13.09-6.6,20.59-.57,9.42,1.15,18,7.72,25.05,4.08,4.35,3.75,4.65,8.48.68a9.65,9.65,0,0,0,1.57-1.56c7.06-9.53,9.6-19.85,4.44-31C98.93,35.52,94.64,27.83,90.86,20.48Zm11.51,53.26a20.44,20.44,0,0,0,3.1,1.8c5.1,1.83,9.68.43,13.54-3,4.29-3.78,5.8-9.23,7.6-14.4,1.19-3.41,2.07-6.94,3-10.45C131,42.37,132.52,37.1,137,32.6c-4.43.21-8.28.17-12.07.63a29.58,29.58,0,0,0-17.36,8.31,2.84,2.84,0,0,0-.79,3,36.6,36.6,0,0,1,.64,15.21A47.29,47.29,0,0,1,102.37,73.74ZM81.79,75c-1.23-3.13-2.59-5.92-3.44-8.85-2.06-7.06-.87-14.25-.21-21.36.24-2.5-.35-4.12-2.28-5.57a29.49,29.49,0,0,0-13.59-5.87c-3.9-.57-7.9-.5-11.85-.71l-.12.53C53.74,36.58,55,41,56.15,45.49c1.71,6.53,3.6,13,5.84,19.38,1.54,4.35,4,8.28,8.68,10.09C74.44,76.42,78.21,77.18,81.79,75Zm62.05-15.36,0-.55a88,88,0,0,0-9.12-.9c-3.26,0-6.06,1-7.28,4.72a23.55,23.55,0,0,1-8.78,12.32c-4.91,3.46-10.07,6.05-16.36,4.13-.11,0-.27.08-.57.18.37.29.58.5.83.66a18.44,18.44,0,0,0,12.77,2.49,25.85,25.85,0,0,0,16.24-8.76C135.68,69.19,138.81,63.59,143.84,59.62ZM83.4,80a19.62,19.62,0,0,1-10.85-1.67C65.34,75,60.74,69.44,58.19,62.06a4.9,4.9,0,0,0-3.81-3.39c-3.52-.76-6.84.17-9.76,1.14l5.61,7.8c2,2.73,3.65,5.79,6,8.13a25.59,25.59,0,0,0,15.49,7.13A16.91,16.91,0,0,0,83.4,80Z"/><path class="cls-1" d="M177.79,90.69c-.15.66-.09,1.48-.48,1.93-7.36,8.51-16,15-27.35,17.2-7.09,1.37-13.76-.38-20.11-3.19-8.17-3.62-16.11-7.77-24.21-11.55-5.34-2.49-10.87-4.41-16.93-3.78a63,63,0,0,0-17.89,5c-7.59,3.2-15,7-23.1,8.76-7.14,1.57-14.35,2.9-21.42-.15-2.9-1.24-5.58-3-8.37-4.5l.34-.78c.62.2,1.24.36,1.85.6,3.36,1.32,6.65,2.9,10.11,3.91,4,1.17,8.1.29,12.08-.55,9.47-2,18-6.46,26.93-10.07,7.11-2.89,14.37-5.39,22.08-5.53a29,29,0,0,1,10.8,2c7,2.73,13.78,6,20.58,9.2,5.82,2.73,11.75,5.09,18.14,6,4.84.7,9.58-.26,14.23-1.62a52.82,52.82,0,0,0,20.26-11.2c.64-.56,1.19-1.21,1.79-1.82Z"/><path class="cls-1" d="M121.4,112.25c-.62,1.44-1.37.59-2.1.24-4.59-2.26-9.08-4.73-13.79-6.72-9.09-3.85-18.53-3.94-27.92-1.33-7.92,2.21-15.68,5-23.57,7.37a115.45,115.45,0,0,1-15,3.83,39.94,39.94,0,0,1-18.77-2c-5.85-1.93-11.36-4.5-16-8.62a5.52,5.52,0,0,1-1.59-2.15,6.71,6.71,0,0,1,1.1.46,60.74,60.74,0,0,0,21.73,8.42,40.68,40.68,0,0,0,20.8-1.42c9.49-3.25,18.89-6.78,28.41-9.93C81,98.33,87.43,97,94.15,97.86A38,38,0,0,1,109.87,104c3.69,2.37,7.22,5,10.81,7.52A4.86,4.86,0,0,1,121.4,112.25Z"/><rect class="cls-2" width="180.45" height="124.12"/></g></g></svg>