<svg xmlns="http://www.w3.org/2000/svg" viewBox="0 0 180.45 124.12"><defs><style>.cls-1{fill:#cd9f00;}.cls-2{fill:none;}</style></defs><title>Asset 7</title><g id="Layer_2" data-name="Layer 2"><g id="Layer_1-2" data-name="Layer 1"><path class="cls-1" d="M152.44,14.58c-.17.7-.13,1.59-.55,2.08a26.67,26.67,0,0,1-4,4c-4.36,3.23-6.74,7.71-8.59,12.64-2.33,6.2-4.44,12.53-7.36,18.44-3.84,7.76-9.34,14.21-17.58,17.8a24.85,24.85,0,0,1-11.56,2.11c-1.11-.06-1.6.2-1.94,1.45-1.53,5.7-3.68,11.27-4.8,17s-1.37,12-2,18c0,.32,0,.63-.07,1.12l-3.77.47c-1.81.24-2.69-.5-2.48-2.36.51-4.31.93-8.63,1.56-12.91.37-2.58,1.36-5.08,1.57-7.66A21.51,21.51,0,0,0,86.9,72.62a4.36,4.36,0,0,0-3.13-1.39,48.91,48.91,0,0,1-18.86-4.35c-5.77-2.55-9.65-7.2-12.95-12.24A121.08,121.08,0,0,1,44.37,40.7c-3-6.24-7.71-10.75-13.31-14.53-1-.71-2-1.51-3.06-2.26l.28-.72c.95.06,1.91.08,2.86.2,4.36.56,8.7,1.29,13.07,1.69,11.41,1.05,22.35,3.41,31.54,10.84A30.1,30.1,0,0,1,87.08,56.51a8.55,8.55,0,0,1,.32,2.08c-.65,5,1.16,9.35,3.12,13.78,1.26,2.85,1.83,6,3.09,9.21.77-2.5,1.63-5,2.28-7.49a40.88,40.88,0,0,0,1-11.38c-.33-11.78,4.14-21.58,12.95-29.5s19.06-11.9,30-15c4-1.15,8-2.61,12-3.93ZM124.82,34.11l.4.38c-.27.42-.52.87-.83,1.26-2.87,3.52-5.8,7-8.63,10.57-4.52,5.66-8.69,11.56-11.37,18.36-.81,2.07-.19,2.69,2,2.29a23,23,0,0,0,11.86-6.27c9-8.56,14.26-19.18,17.23-31.06a56.22,56.22,0,0,0,.83-7c-1.64.21-2.72.26-3.76.5-7.68,1.74-14.16,5.75-20,10.9-5,4.44-9.68,9.17-11.88,15.75a35.72,35.72,0,0,0-1.49,15.3C106.46,53.61,113.54,42.09,124.82,34.11ZM85.68,63c-.6-11.13-4.13-20.67-13.8-27.28-9.42-6.42-22.22-6.93-27.57-4a6.31,6.31,0,0,0,.18.72A68.42,68.42,0,0,0,55.68,50.88c4.33,5.3,9.18,10,15.66,12.64a30.17,30.17,0,0,0,11.08,2.4,14.79,14.79,0,0,0-1.15-2.82c-3.77-5.58-7.72-11-13.22-15.09Q63,44.23,58,40.31c-1-.77-2.29-1.48-1.94-3.62C68.58,42.75,77.32,52.56,85.68,63Z"/><rect class="cls-2" width="180.45" height="124.12"/></g></g></svg>