<svg xmlns="http://www.w3.org/2000/svg" viewBox="0 0 124.72 91.63"><defs><style>.cls-1{fill:#cd9f00;}</style></defs><title>benefits_balance</title><g id="Layer_2" data-name="Layer 2"><g id="Layer_1-2" data-name="Layer 1"><path class="cls-1" d="M124.72,55.41a9.32,9.32,0,0,0-2.49.13A16.77,16.77,0,0,0,119.38,57c-10.94,6.09-22.58,8.6-35.06,6.33A29.9,29.9,0,0,1,70.13,57c6.5-14.78,13-29.45,19.39-44.12,2.35-5.33,2.35-5.33,8.22-7a1.69,1.69,0,0,1,.33,0C105.89,21,113.4,36.31,122.79,50.6l.75-.38-23.28-45,6.44-2.8c-.08-.28-.16-.55-.25-.82L99.37,2.94c-.17-.28-.34-.6-.55-.9C96.93-.7,94-.68,92.18,2.09a6.46,6.46,0,0,0-.85,1.65,2.66,2.66,0,0,1-2.2,2c-3.19.8-6.35,1.75-9.49,2.73C60,14.6,51.71,16.42,31.61,21A2,2,0,0,1,30,20.52C27.86,17.93,24.76,18,23.4,21a6,6,0,0,1-4.75,3.61A41.4,41.4,0,0,0,13.91,26a18.08,18.08,0,0,0-2.32,1.18c.08.22.15.45.22.67l8.86-1.06a9.82,9.82,0,0,1-.32,1Q10.51,50.64.66,73.5A7.7,7.7,0,0,0,0,76c-.25,4,2.36,6.6,5.18,8.86,8,6.41,17.59,7.5,27.33,6.44,9.33-1,16.83-5.75,22.31-13.31.84-1.16,2.18-2.5,1-3.78s-2.6.12-3.74.77A57.17,57.17,0,0,1,24.58,82.9,38.61,38.61,0,0,1,3,77.09c-1.22-.75-1.71-1.4-1-3,6.36-14.24,12.75-28.48,18.8-42.85,1.56-3.72,3.39-6.27,7.74-6.36a.84.84,0,0,0,.31-.07Q41.12,46.69,53.26,68.32a2.94,2.94,0,0,0,.42.62,1.69,1.69,0,0,0,.46.31s.12,0,.18,0a2.6,2.6,0,0,0,.4-.27q-11.47-22.29-23-44.62c11.79-3.09,21.43-5.69,29.09-7.87,11.42-3.13,16.61-4.65,28.33-8-.34.93-.5,1.46-.71,2C82,25.4,75.54,40.35,69.22,55.35A7.22,7.22,0,0,0,69.13,60c.93,2.86,3.14,5,5.6,6.72a34.73,34.73,0,0,0,18.7,6.1c8.67.47,16.66-1.32,23.42-6.72,2.87-2.3,5.17-5.3,7.57-8.11.47-.55.22-1.7.3-2.57"/><path class="cls-1" d="M56,26.26a1.27,1.27,0,0,0,.53,1.11,18,18,0,0,0,9-.47l-4.7-8.2A19,19,0,0,0,56,26.26"/></g></g></svg>