<svg xmlns="http://www.w3.org/2000/svg" viewBox="0 0 180.45 124.12"><defs><style>.cls-1{fill:#cd9f00;}.cls-2{fill:none;}</style></defs><title>Asset 9</title><g id="Layer_2" data-name="Layer 2"><g id="Layer_1-2" data-name="Layer 1"><path class="cls-1" d="M97.14,61.52c5.28,3.53,10.24,7.76,17.14,7.82,13.56.13,27.12.32,40.68.29,3.89,0,7.77-.1,11.65-.24s7.72-.69,11.5-.31c.48,0,2.52.27,1.93,1.11a1.58,1.58,0,0,1-.86.44,21.72,21.72,0,0,1-3.67.66c-4.38.52-8.74,1-13.14,1.36-8.55.7-17.09,1.08-25.67,1.36l-3.38.12a4,4,0,0,0-2.46,1.13c-8.57,8.72-19,12.85-31.16,13-10.32.13-20-2-28.88-7.28a43.85,43.85,0,0,1-10.54-9.32,3.25,3.25,0,0,0-2.15-1.1l-9.91.08q-13,.12-26.06.26l-13,.16L4,71.13c-.94,0-2.79.28-3.54-.47-1.21-1.21,4.68-1.37,5.29-1.39q13-.48,26.05-.92l13-.44c1.1,0,12.59-.76,12.67-.43-.65-2.92-1.34-6.09-2-9.14a20.78,20.78,0,0,0-2.09,0c-8.35,0-16.7.1-25.06.1q-6.93,0-13.87,0c-1.73,0-3.47,0-5.2-.08-1,0-3.34.22-3.94-.54,1-1.05,3.14-1.13,4.53-1.2,7.21-.36,14.35-1.22,21.58-1.36s14.67-.19,22-.09c2.14,0,3-.53,3.56-2.75,1.69-6.54,5.18-11.91,11.57-14.85a18.09,18.09,0,0,1,22.71,6.55c.49.74,1,1.49,1.43,2.21,3.4-1.65,6.7-3.32,10.06-4.86a44.27,44.27,0,0,1,16.88-3.88,13.37,13.37,0,0,1,9,2.77c5.5,4.42,7.37,10.38,7.18,17.16,0-.17,6.84,0,7.26,0q6.72,0,13.43.15l5.13.1c2.17,0,4.35-.06,6.52,0l.51,0a3.47,3.47,0,0,1,1.62.4c.16.1.32.26.28.44s-.26.28-.45.33a19.65,19.65,0,0,1-2.42.38,203.12,203.12,0,0,1-25.39,1.29q-15.75.13-31.49.14c-3,0-6.09-.67-9.14-.77a22.28,22.28,0,0,0-4.57.77Zm31.91,12.94-.21-1c-5.09,0-10.18-.15-15.26,0a28.69,28.69,0,0,0-7,1.15c-12.71,3.68-23.57.48-32.78-8.73-2.51-2.51-4.36-5.71-2.65-9.28A14.13,14.13,0,0,1,76,51c3.33-2.14,7.11-3.58,11.17-5.54-1.64-1.44-3-3.06-4.73-4.08-8.75-5.17-19.17-2.59-21.29,9.47C59.61,59.8,63,67.12,69.49,73.11c5,4.59,11,7.45,17.38,9.43,10.17,3.14,20.35,3.9,30.47-.2A33.81,33.81,0,0,0,129.05,74.46ZM128.66,57c0-1.32.06-2.65,0-4-.21-5.59-3-9.64-7.67-10.92-3.55-1-7.3-1.45-10.83-.22C99,45.78,87.93,49.9,76.84,54a2,2,0,0,0-1.15,1.24C75.18,58,78.63,62,81.61,62a17,17,0,0,0,5.3-.69c5.63-1.92,11.13-4.2,16.76-6.09a125,125,0,0,1,13.27-3.73,6.31,6.31,0,0,1,7.6,3.76C125.31,57,126.35,57.57,128.66,57ZM100.9,72.35a3,3,0,0,0-.35-.72q-4.2-3.81-8.43-7.59c-.26-.24-.65-.61-.89-.55-2.86.68-5.71,1.44-9.11,2.32C87.93,70.73,93.75,73.26,100.9,72.35Zm8.22-15.46,8.73,0C116,54.26,112.77,54.12,109.12,56.89Z"/><rect class="cls-2" width="180.45" height="124.12"/></g></g></svg>